# xmcd CD database file
#
# Track frame offsets:
#	150
#	14696
#	30669
#	54982
#	70667
#	88324
#	107073
#	125389
#	143600
#	159470
#	179618
#	195181
#	209454
#
# Disc length: 3037 seconds
#
# Revision: 0
# Processed by: cddbd v1.5.2PL0 Copyright (c) Steve Scherf et al.
# Submitted via: CDex 1.51
#
DISCID=b00bdb0d
DTITLE=Country Mountain Tributes - The Songs Of The Beatles
DYEAR=2012
DGENRE=Country
TTITLE0=All My Loving
TTITLE1=I Want To Hold Your Hand 
TTITLE2=Hey Jude 
TTITLE3=She Loves You 
TTITLE4=Eleanor Rigby
TTITLE5=Something
TTITLE6=Ob-La-Di, Ob-La-Da 
TTITLE7=Let It Be 
TTITLE8=Norwegian Wood 
TTITLE9=Michelle
TTITLE10=Eight Days A Week 
TTITLE11=Yesterday
TTITLE12=All You Need Is Love
EXTD=YEAR: 2012
EXTT0=
EXTT1=
EXTT2=
EXTT3=
EXTT4=
EXTT5=
EXTT6=
EXTT7=
EXTT8=
EXTT9=
EXTT10=
EXTT11=
EXTT12=
PLAYORDER=
